<svg xmlns="http://www.w3.org/2000/svg" viewBox="0 0 434.79 453.37"><defs><style>.cls-1{fill:#abc1b4;}.cls-2{opacity:0.28;}.cls-3{fill:#f3ede4;fill-rule:evenodd;}.cls-4{fill:#fff;}</style></defs><g id="Layer_2" data-name="Layer 2"><g id="Layer_1-2" data-name="Layer 1"><rect class="cls-1" width="434.79" height="453.37"/><g class="cls-2"><path class="cls-3" d="M35.3,257.41a109.45,109.45,0,0,1,3.23-26,134.65,134.65,0,0,1,9-25c7.55-16.07,17.83-30.62,28.87-43.31A302.05,302.05,0,0,1,110.68,130q4.33-3.57,8.7-7,2.19-1.7,4.39-3.35l4.46-3.23q4.46-3.18,9-6.19c3-2,6.08-3.9,9.12-5.76A267.69,267.69,0,0,1,220.85,73c24.54-6.17,47.92-7.89,67.44-6.58q4.45.28,8.63.75c2.78.32,5.44.63,8.08,1.18a146.38,146.38,0,0,1,14.59,3.58A111,111,0,0,1,332,76.87q2.83,1.32,5.4,2.72c1.72.94,3.36,2,4.91,3a81.34,81.34,0,0,1,8.32,6.3,54.37,54.37,0,0,1,6.47,6.51,55.59,55.59,0,0,1,8.17,12.7c3.58,7.91,3.89,14.38,2.73,17.61s-3.83,3.23-7.11-1.9-5.74-8-7.38-9.29-2.52-.88-2.86.25c-.69,2.27.6,7.81,1.38,11a76.4,76.4,0,0,1,.76,16.94,59.4,59.4,0,0,1-2.47,13.43A43.42,43.42,0,0,1,340,174.05c-.52.52-1.05,1-1.58,1.48s-1.07,1-1.62,1.44a34.15,34.15,0,0,1-3.29,2.45,32,32,0,0,1-6.61,3.32,25.2,25.2,0,0,1-11.56,2.07q-.57-.06-1.14-.15t-1.14-.15a18.74,18.74,0,0,1-2.22-.5,19.52,19.52,0,0,1-4.14-1.71,19,19,0,0,1-6.48-5.9,15.11,15.11,0,0,1-2.71-8.36,16.89,16.89,0,0,1,.67-5,20.76,20.76,0,0,1,2.38-5.22,28.83,28.83,0,0,1-2.84.77,23.62,23.62,0,0,1-2.69.53,18.86,18.86,0,0,1-4.92,0,16.89,16.89,0,0,1-7.9-3.24A15.37,15.37,0,0,1,276,142.3c.52-5.14,3.24-8.3,5.13-11.5s2.91-6.79-.14-13a37,37,0,0,0-8.91-14.21,42.29,42.29,0,0,0-13.78-8.8c-10.5-4.22-23.24-5.18-35.83-4.1-3.18.22-6.28.68-9.37,1.18S207,93,204,93.67c-6,1.35-11.56,3-16.74,4.72A175.62,175.62,0,0,0,164.27,108c-9.11,4.63-14.63,8.91-15.48,10.75-.42.93.34,1.26,2.47.78s5.57-1.8,10.71-4c4.33-2.13,8.5-4.12,12.65-5.82s8.2-3.19,12.11-4.52,7.8-2.35,11.49-3.29q2.78-.69,5.45-1.27c1.78-.37,3.57-.66,5.3-.94,3.46-.54,6.78-.94,9.94-1.22l2.35-.17,2.32-.08c1.52,0,3-.05,4.45,0a74.06,74.06,0,0,1,15.43,1.62A53,53,0,0,1,255,103.57a27.57,27.57,0,0,1,7.57,5.21c3.72,3.73,4.8,7.75,3.35,11.15-3.71,8.57-10,12.95-17.25,14.67A44.88,44.88,0,0,1,237.41,136c-1.91,0-3.82-.08-5.68-.18s-3.67-.23-5.41-.41c-7-.68-11.35-.54-13.07.14s-.93,1.69,2.21,2.78,7.4,2.59,10,4.89,3.63,5.52.44,10.2a16.24,16.24,0,0,1-9.46,6c-3.93,1-8.66,1-14.12.82-2.73-.11-5.67-.32-8.79-.57s-6.41-.43-9.9-.64-7.16-.4-11-.42-7.82,0-12,.26c-4,.5-7.9,1.27-11.83,2.1s-7.82,1.81-11.64,2.95a178.1,178.1,0,0,0-22.4,8.18,148.43,148.43,0,0,0-38.6,24.42,107.58,107.58,0,0,0-14,15,76.94,76.94,0,0,0-9.15,15.39C48.66,237,48,246.24,50.14,253.22c.16-1.24.38-2.46.65-3.66s.53-2.41.82-3.62c.62-2.38,1.39-4.71,2.21-7a79.55,79.55,0,0,1,6.34-13.1A96,96,0,0,1,78.31,204a121.32,121.32,0,0,1,22-15.54,156.58,156.58,0,0,1,22.81-10.3c15-5.43,28.17-7.28,37.57-6.23s15.13,5,15.69,11.19-1.82,12-6.86,16.83a35.37,35.37,0,0,1-9.59,6.34,56.71,56.71,0,0,1-13.52,4.27c2.2,5,4.55,11.14,1.15,17.07-1.68,3-4.81,5.86-9.89,8.53s-12.15,5.1-21.59,7.4a93.52,93.52,0,0,0-13.75,4,77.44,77.44,0,0,0-12.14,5.84A65.27,65.27,0,0,0,80,260.93a50.54,50.54,0,0,0-7.61,8.65,44.05,44.05,0,0,0-5.08,9.55,47,47,0,0,0-1.44,4.92,32.21,32.21,0,0,0-.71,4.89,27.53,27.53,0,0,0,4.57,17.62,48.15,48.15,0,0,0-3.29,10.82,54,54,0,0,1-22.85-23,69.42,69.42,0,0,1-6.26-17.18,84.09,84.09,0,0,1-1.59-9.63c-.17-1.65-.27-3.3-.36-5L35.3,260Z" transform="translate(-30.69)"/></g><path class="cls-4" d="M207.22,139.76l68.09-.26H291l-1,1.78Q278.85,160,257.08,196.33t-32.4,53.79h64.8v5.32H205.7l1-1.77q11.13-18.22,32.91-54.55t32.4-54.3h-64.8Z" transform="translate(-30.69)"/><path class="cls-4" d="M320.62,247.09a7,7,0,0,1,2.15-5.19,7.52,7.52,0,0,1,10.63,10.63,7.09,7.09,0,0,1-5.19,2.15,7.59,7.59,0,0,1-3.8-1,7.3,7.3,0,0,1-2.78-2.79A7.45,7.45,0,0,1,320.62,247.09Z" transform="translate(-30.69)"/></g></g></svg>