<svg xmlns="http://www.w3.org/2000/svg" viewBox="0 0 228.46 98.36"><defs><style>.cls-1{fill:#abc1b4;}.cls-2{fill:#b4abab;}</style></defs><g id="Layer_2" data-name="Layer 2"><g id="Layer_1-2" data-name="Layer 1"><path class="cls-1" d="M29.66.14,67.75,0h8.77L76,1Q69.72,11.48,57.55,31.78T39.43,61.87H75.67v3H28.81l.57-1q6.23-10.18,18.4-30.51T65.91,3H29.66Z"/><path class="cls-1" d="M136.27,43.75q-.15,10.19-10.48,16.42a29.69,29.69,0,0,1-22.37,3.54q-13.73-3-18.54-16.56a44,44,0,0,1-2-13.74Q83,18.55,90.4,9.77A26,26,0,0,1,107,.42a31.07,31.07,0,0,1,17.56,2.27q8.63,3.69,10.9,10.48a11.63,11.63,0,0,1,.85,4.39,10.56,10.56,0,0,1-1.84,6.08q-2.55,3.69-9.35,5.95a120.93,120.93,0,0,1-13.16,3.11,84.19,84.19,0,0,0-11,3q-6.81,2.4-9.63,6.51Q92.09,52,98,57.48a17.49,17.49,0,0,0,12.46,5,18.11,18.11,0,0,0,5.1-.71A16.57,16.57,0,0,0,124.8,55a19.81,19.81,0,0,0,3.26-11.25c0-2,.71-3.31,2.12-4a4.16,4.16,0,0,1,4.18.29A3.81,3.81,0,0,1,136.27,43.75ZM91.11,34.12v4.11q4.38-4.4,16-7.37c7.08-1.69,11.09-2.69,12-3q5.81-2,7.64-4.81a7.28,7.28,0,0,0,1.28-4.25,17,17,0,0,0-2.83-9.63A16.62,16.62,0,0,0,117.58,3a16.44,16.44,0,0,0-9.13-.78,16.71,16.71,0,0,0-8.14,4.18Q91.1,14.72,91.11,34.12Z"/><path class="cls-1" d="M160.48,13.17A42.28,42.28,0,0,1,170.39,5,27.18,27.18,0,0,1,181.71.85q10.2-1,16.14,7.5a19.75,19.75,0,0,1,3.75,7.79,51.21,51.21,0,0,1,.78,9.91V64.84h-8.21V26.05q0-10.76-3.54-15.72A11.51,11.51,0,0,0,185.25,6q-5.52-2.26-12.31,1a31.32,31.32,0,0,0-12.46,10.9v47h-8.22V1.27h8.22Z"/><path class="cls-2" d="M13.16,86.53a7.48,7.48,0,0,1,1.74.82,5.08,5.08,0,0,1,1.27,1.13A4.47,4.47,0,0,1,17,89.9a5.38,5.38,0,0,1,.26,1.69c0,3.73-2.84,5.86-7.81,5.86H0v-.2H0a1.66,1.66,0,0,0,1.21-.39,3.05,3.05,0,0,0,.63-2.26V79.87a3.07,3.07,0,0,0-.63-2.26A1.57,1.57,0,0,0,.1,77.22H0V77H8.61c4.35,0,6.85,1.58,6.85,4.35a3.38,3.38,0,0,1-.29,1.4A3.93,3.93,0,0,1,14,84.27a6.48,6.48,0,0,1-1.8,1,8.72,8.72,0,0,1-2.46.55A21.89,21.89,0,0,1,13.16,86.53Zm-8.54-1H7.85a5.36,5.36,0,0,0,3.59-1.07,3.94,3.94,0,0,0,1.24-3.13,3.83,3.83,0,0,0-1.06-2.89,4.19,4.19,0,0,0-3-1h-4Zm9.62,6c0-3.53-2.44-5.56-6.68-5.56H4.62V97H9.09a5,5,0,0,0,3.82-1.41A5.64,5.64,0,0,0,14.24,91.59Z"/><path class="cls-2" d="M18.18,97.25h.1a1.61,1.61,0,0,0,1.15-.39,3.09,3.09,0,0,0,.63-2.26V79.87a3,3,0,0,0-.63-2.25,1.55,1.55,0,0,0-1.15-.39h-.1V77H32v3.34h-.2c-.83-2-2.36-2.89-5.12-2.89H22.83v8.66h3c2.29,0,3.41-.49,4-1.74l.06-.13h.21V88.7h-.2l-.07-.15c-.6-1.42-1.73-2-4-2h-3V97h4.46c2.49,0,3.92-.74,4.77-2.48,0,0,.21-.47.35-.78h.21v3.7H18.18Z"/><path class="cls-2" d="M46.68,89.58H39.1L37.39,94.3c-.38,1.16-.39,1.93,0,2.41a1.72,1.72,0,0,0,1.47.54h.11v.2H33.79v-.2h.07c1.18,0,2-.75,2.7-2.47L43.14,77h1.08l7.72,17.79c.65,1.39,1.34,2.12,2.25,2.36l.19,0,.43,0v.2H47.48v-.2H48a1.34,1.34,0,0,0,1-.47,2,2,0,0,0-.05-1.87Zm-.19-.44-3.87-9.2-3.34,9.2Z"/><path class="cls-2" d="M68.66,96.37A7.77,7.77,0,0,1,63.9,97.7,12.36,12.36,0,0,1,61,97.34a6.31,6.31,0,0,1-3.85-2.6,6.65,6.65,0,0,1-.87-2.11,21.85,21.85,0,0,1-.41-4.58v0c0-1,0-3.36,0-5.15v-3c0-1.76-.5-2.56-1.63-2.65H54V77h6.52v.2h-.16a1.87,1.87,0,0,0-.76.14,1.17,1.17,0,0,0-.44.36,1.58,1.58,0,0,0-.29.53,3,3,0,0,0-.17.73,6.73,6.73,0,0,0-.06.91c0,.84,0,8.31,0,9.13a22.25,22.25,0,0,0,.14,2.57,7.91,7.91,0,0,0,.82,2.91,4.8,4.8,0,0,0,1.73,1.77,5.15,5.15,0,0,0,2.75.69A7.31,7.31,0,0,0,68,96a5.43,5.43,0,0,0,2.24-2.77,18.4,18.4,0,0,0,.38-5.21V80.19a3.41,3.41,0,0,0-.71-2.5,1.9,1.9,0,0,0-1.37-.47h-.17V77h5.08v.2H73a1.65,1.65,0,0,0-1,.44,3.39,3.39,0,0,0-.7,2.52v7.69a20.32,20.32,0,0,1-.41,5.34A6.44,6.44,0,0,1,68.66,96.37Z"/><path class="cls-2" d="M84.6,77.47V94.6a3.09,3.09,0,0,0,.62,2.26,1.55,1.55,0,0,0,1.15.39h.1v.2H80v-.2H80a1.61,1.61,0,0,0,1.17-.39,3.07,3.07,0,0,0,.63-2.26V77.47H79.08c-2.61,0-4.1.91-5,3l-.15.35h-.21V77H92.66v3.84h-.2l-.15-.34c-.87-2.14-2.36-3-5-3Z"/><path class="cls-2" d="M108.65,79.69l-5,8.09,0,0v6.8a3.16,3.16,0,0,0,.67,2.26,1.58,1.58,0,0,0,1.14.38h.1v.2H99.06v-.2h.11a1.57,1.57,0,0,0,1.14-.39,3.09,3.09,0,0,0,.63-2.26V89.1l-5.19-9.33c-.17-.31-.33-.58-.49-.82-.8-1.21-1.45-1.72-2.2-1.73V77h6.47v.2h-.1a1.07,1.07,0,0,0-1,.39c-.24.38-.17,1,.26,1.86l4.44,8.12,4.39-7c1-1.62,1.33-2.44,1-2.94-.17-.3-.53-.43-1.09-.43h-.17V77h4.37v.2h0C110.69,77.22,109.81,77.93,108.65,79.69Z"/><path class="cls-2" d="M136.79,86.48h5.9v.21a3.53,3.53,0,0,0-1.51.64,4.18,4.18,0,0,0-.91.92,16.17,16.17,0,0,0-1.59,2.38c-.14.29-1.16,1.84-1.71,2.68l-.17.25-.22.33.33.43c1.44,1.85,2.84,2.9,4.18,3.13v.21h-2.43A4.24,4.24,0,0,1,135,95.88l-.16-.21-.2.16c-.35.26-1.19.81-1.26.85a16.61,16.61,0,0,1-1.58.79,10.58,10.58,0,0,1-4.06.89,5.82,5.82,0,0,1-4-1.28,4,4,0,0,1-1.46-3,6,6,0,0,1,1.27-3.56,15.07,15.07,0,0,1,5-4l.33-.18-.19-.39a16.81,16.81,0,0,1-1-2.37,7.49,7.49,0,0,1-.29-1.9,4.3,4.3,0,0,1,1.8-3.78,5.64,5.64,0,0,1,3.33-1,4.15,4.15,0,0,1,2.86,1,3.29,3.29,0,0,1,1.11,2.44,3.8,3.8,0,0,1-1,2.65,14.64,14.64,0,0,1-4,2.67l-.32.17.06.1a70.5,70.5,0,0,0,4.8,7.36l.11.17.23-.3a12.62,12.62,0,0,0,1.81-3.36,3.11,3.11,0,0,0-.57-2.53,1.86,1.86,0,0,0-.93-.57Zm-2.2,8.74-.23-.3c-1.26-1.64-2.52-3.47-3.16-4.48s-1.17-1.94-1.82-3.2l-.19-.36-.35.2a9.43,9.43,0,0,0-3,2.5,5,5,0,0,0-1,3,4.76,4.76,0,0,0,1.23,3.2,4.19,4.19,0,0,0,3.29,1.4,5.73,5.73,0,0,0,1.24-.15,9.34,9.34,0,0,0,3.67-1.63Zm-5.15-14.76a5.84,5.84,0,0,0,.31,1.82A22.48,22.48,0,0,0,131,85.21l0,.09.36-.16a8.79,8.79,0,0,0,3.09-2,4.26,4.26,0,0,0,1-2.87,2.94,2.94,0,0,0-.84-2.13,2.75,2.75,0,0,0-2.06-.85,2.81,2.81,0,0,0-2.4,1.1A3.4,3.4,0,0,0,129.44,80.46Z"/><path class="cls-2" d="M166.34,86.53a7.48,7.48,0,0,1,1.74.82,5.08,5.08,0,0,1,1.27,1.13,4.29,4.29,0,0,1,.78,1.42,5.38,5.38,0,0,1,.26,1.69c0,3.73-2.84,5.86-7.8,5.86h-9.41v-.2h0a1.7,1.7,0,0,0,1.21-.39,3.1,3.1,0,0,0,.62-2.26V79.87a3.12,3.12,0,0,0-.62-2.26,1.61,1.61,0,0,0-1.15-.39h-.1V77h8.61c4.36,0,6.86,1.58,6.86,4.35a3.55,3.55,0,0,1-.29,1.4,4,4,0,0,1-1.19,1.5,6.48,6.48,0,0,1-1.8,1,8.69,8.69,0,0,1-2.45.55A22.08,22.08,0,0,1,166.34,86.53Zm-8.54-1H161a5.36,5.36,0,0,0,3.59-1.07,3.94,3.94,0,0,0,1.24-3.13,3.83,3.83,0,0,0-1.06-2.89,4.19,4.19,0,0,0-3-1h-4Zm9.62,6c0-3.53-2.43-5.56-6.67-5.56H157.8V97h4.47a5,5,0,0,0,3.82-1.41A5.64,5.64,0,0,0,167.42,91.59Z"/><path class="cls-2" d="M183.2,89.58h-7.58l-1.71,4.72c-.38,1.16-.39,1.93,0,2.41a1.72,1.72,0,0,0,1.47.54h.11v.2h-5.15v-.2h.07c1.18,0,2-.75,2.7-2.47L179.66,77h1.07l7.73,17.79c.65,1.39,1.34,2.12,2.25,2.36l.19,0,.42,0v.2H184v-.2h.54a1.29,1.29,0,0,0,.94-.47c.29-.4.27-1,0-1.87Zm-.19-.44-3.87-9.2-3.35,9.2Z"/><path class="cls-2" d="M199,77.47V94.6a3,3,0,0,0,.63,2.26,1.53,1.53,0,0,0,1.15.39h.09v.2h-6.52v-.2h.08a1.58,1.58,0,0,0,1.16-.39,3,3,0,0,0,.64-2.26V77.47h-2.75c-2.61,0-4.09.91-5,3l-.16.35h-.2V77H207v3.84h-.21l-.15-.34c-.86-2.14-2.35-3-5-3Z"/><path class="cls-2" d="M228.36,77.23a1.61,1.61,0,0,0-1.15.4,3.12,3.12,0,0,0-.63,2.25V94.6a3.05,3.05,0,0,0,.63,2.26,1.57,1.57,0,0,0,1.15.39h.1v.2h-6.52v-.2H222a1.54,1.54,0,0,0,1.15-.39,3.05,3.05,0,0,0,.63-2.26V86.23h-11.3V94.6a3.1,3.1,0,0,0,.62,2.26,1.57,1.57,0,0,0,1.15.39h.1v.2h-6.52v-.2h0a1.7,1.7,0,0,0,1.21-.39,3.1,3.1,0,0,0,.62-2.26V79.87a3.06,3.06,0,0,0-.62-2.24,1.6,1.6,0,0,0-1.15-.4h-.1V77h6.52v.21h-.12a1.58,1.58,0,0,0-1.13.41,3.06,3.06,0,0,0-.62,2.24v5.9h11.3V79.87a3,3,0,0,0-.63-2.24,1.57,1.57,0,0,0-1.14-.4h-.1V77h6.52v.21Z"/></g></g></svg>